<svg width="499" height="80" viewBox="0 0 499 80" fill="none" xmlns="http://www.w3.org/2000/svg">
<path d="M3.52273 28.375V20.8182H48.5511V28.375H30.3977V79H21.6477V28.375H3.52273ZM69.8722 79.8807C65.7813 79.8807 62.2112 78.9432 59.1619 77.0682C56.1127 75.1932 53.7453 72.5701 52.0597 69.1989C50.3741 65.8277 49.5312 61.8883 49.5312 57.3807C49.5312 52.8542 50.3741 48.8958 52.0597 45.5057C53.7453 42.1155 56.1127 39.483 59.1619 37.608C62.2112 35.733 65.7813 34.7955 69.8722 34.7955C73.9631 34.7955 77.5331 35.733 80.5824 37.608C83.6316 39.483 85.9991 42.1155 87.6847 45.5057C89.3703 48.8958 90.2131 52.8542 90.2131 57.3807C90.2131 61.8883 89.3703 65.8277 87.6847 69.1989C85.9991 72.5701 83.6316 75.1932 80.5824 77.0682C77.5331 78.9432 73.9631 79.8807 69.8722 79.8807ZM69.9006 72.75C72.5521 72.75 74.7491 72.0492 76.4915 70.6477C78.2339 69.2462 79.5218 67.3807 80.3551 65.0511C81.2074 62.7216 81.6335 60.1553 81.6335 57.3523C81.6335 54.5682 81.2074 52.0114 80.3551 49.6818C79.5218 47.3333 78.2339 45.4489 76.4915 44.0284C74.7491 42.608 72.5521 41.8977 69.9006 41.8977C67.2301 41.8977 65.0142 42.608 63.2528 44.0284C61.5104 45.4489 60.2131 47.3333 59.3608 49.6818C58.5275 52.0114 58.1108 54.5682 58.1108 57.3523C58.1108 60.1553 58.5275 62.7216 59.3608 65.0511C60.2131 67.3807 61.5104 69.2462 63.2528 70.6477C65.0142 72.0492 67.2301 72.75 69.9006 72.75ZM119.212 79H100.376V20.8182H119.808C125.509 20.8182 130.405 21.983 134.496 24.3125C138.587 26.6231 141.721 29.947 143.899 34.2841C146.096 38.6023 147.195 43.7822 147.195 49.8239C147.195 55.8845 146.087 61.0928 143.871 65.4489C141.674 69.8049 138.492 73.1572 134.325 75.5057C130.159 77.8352 125.121 79 119.212 79ZM109.155 71.3295H118.729C123.161 71.3295 126.844 70.4962 129.78 68.8295C132.715 67.1439 134.912 64.7102 136.371 61.5284C137.829 58.3277 138.558 54.4261 138.558 49.8239C138.558 45.2595 137.829 41.3864 136.371 38.2045C134.931 35.0227 132.782 32.608 129.922 30.9602C127.062 29.3125 123.511 28.4886 119.268 28.4886H109.155V71.3295ZM175.81 79.8807C171.719 79.8807 168.149 78.9432 165.099 77.0682C162.05 75.1932 159.683 72.5701 157.997 69.1989C156.312 65.8277 155.469 61.8883 155.469 57.3807C155.469 52.8542 156.312 48.8958 157.997 45.5057C159.683 42.1155 162.05 39.483 165.099 37.608C168.149 35.733 171.719 34.7955 175.81 34.7955C179.901 34.7955 183.471 35.733 186.52 37.608C189.569 39.483 191.937 42.1155 193.622 45.5057C195.308 48.8958 196.151 52.8542 196.151 57.3807C196.151 61.8883 195.308 65.8277 193.622 69.1989C191.937 72.5701 189.569 75.1932 186.52 77.0682C183.471 78.9432 179.901 79.8807 175.81 79.8807ZM175.838 72.75C178.49 72.75 180.687 72.0492 182.429 70.6477C184.171 69.2462 185.459 67.3807 186.293 65.0511C187.145 62.7216 187.571 60.1553 187.571 57.3523C187.571 54.5682 187.145 52.0114 186.293 49.6818C185.459 47.3333 184.171 45.4489 182.429 44.0284C180.687 42.608 178.49 41.8977 175.838 41.8977C173.168 41.8977 170.952 42.608 169.19 44.0284C167.448 45.4489 166.151 47.3333 165.298 49.6818C164.465 52.0114 164.048 54.5682 164.048 57.3523C164.048 60.1553 164.465 62.7216 165.298 65.0511C166.151 67.3807 167.448 69.2462 169.19 70.6477C170.952 72.0492 173.168 72.75 175.838 72.75ZM200.241 28.375V20.8182H245.27V28.375H227.116V79H218.366V28.375H200.241ZM261.3 79.9659C258.535 79.9659 256.035 79.4545 253.8 78.4318C251.565 77.3902 249.794 75.8845 248.487 73.9148C247.199 71.9451 246.555 69.5303 246.555 66.6705C246.555 64.2083 247.029 62.1818 247.976 60.5909C248.923 59 250.201 57.7405 251.811 56.8125C253.421 55.8845 255.22 55.1837 257.209 54.7102C259.197 54.2367 261.224 53.8769 263.288 53.6307C265.902 53.3277 268.023 53.0814 269.652 52.892C271.281 52.6837 272.464 52.3523 273.203 51.8977C273.942 51.4432 274.311 50.7045 274.311 49.6818V49.483C274.311 47.0019 273.61 45.0795 272.209 43.7159C270.826 42.3523 268.762 41.6705 266.016 41.6705C263.156 41.6705 260.902 42.3049 259.254 43.5739C257.625 44.8239 256.499 46.2159 255.874 47.75L247.891 45.9318C248.838 43.2803 250.22 41.1402 252.038 39.5114C253.875 37.8636 255.987 36.6705 258.374 35.9318C260.76 35.1742 263.269 34.7955 265.902 34.7955C267.644 34.7955 269.491 35.0038 271.442 35.4205C273.411 35.8182 275.249 36.5568 276.953 37.6364C278.677 38.7159 280.088 40.2595 281.186 42.267C282.285 44.2557 282.834 46.8409 282.834 50.0227V79H274.538V73.0341H274.197C273.648 74.1326 272.824 75.2121 271.726 76.2727C270.627 77.3333 269.216 78.214 267.493 78.9148C265.769 79.6155 263.705 79.9659 261.3 79.9659ZM263.146 73.1477C265.495 73.1477 267.502 72.6837 269.169 71.7557C270.855 70.8277 272.133 69.6155 273.004 68.1193C273.894 66.6042 274.339 64.9848 274.339 63.2614V57.6364C274.036 57.9394 273.449 58.2235 272.578 58.4886C271.726 58.7348 270.75 58.9527 269.652 59.142C268.554 59.3125 267.483 59.4735 266.442 59.625C265.4 59.7576 264.529 59.8712 263.828 59.9659C262.18 60.1742 260.675 60.5246 259.311 61.017C257.966 61.5095 256.887 62.2197 256.072 63.1477C255.277 64.0568 254.879 65.2689 254.879 66.7841C254.879 68.8864 255.656 70.4773 257.209 71.5568C258.762 72.6174 260.741 73.1477 263.146 73.1477ZM294.83 79V20.8182H303.324V42.4375H303.835C304.328 41.5284 305.038 40.4773 305.966 39.2841C306.894 38.0909 308.182 37.0492 309.83 36.1591C311.477 35.25 313.655 34.7955 316.364 34.7955C319.886 34.7955 323.03 35.6856 325.795 37.4659C328.561 39.2462 330.729 41.8125 332.301 45.1648C333.892 48.517 334.688 52.5511 334.688 57.267C334.688 61.983 333.902 66.0265 332.33 69.3977C330.758 72.75 328.598 75.3352 325.852 77.1534C323.106 78.9527 319.972 79.8523 316.449 79.8523C313.797 79.8523 311.629 79.4072 309.943 78.517C308.277 77.6269 306.97 76.5852 306.023 75.392C305.076 74.1989 304.347 73.1383 303.835 72.2102H303.125V79H294.83ZM303.153 57.1818C303.153 60.25 303.598 62.9394 304.489 65.25C305.379 67.5606 306.667 69.3693 308.352 70.6761C310.038 71.964 312.102 72.608 314.545 72.608C317.083 72.608 319.205 71.9356 320.909 70.5909C322.614 69.2273 323.902 67.3807 324.773 65.0511C325.663 62.7216 326.108 60.0985 326.108 57.1818C326.108 54.303 325.672 51.7178 324.801 49.4261C323.949 47.1345 322.661 45.3258 320.938 44C319.233 42.6742 317.102 42.0114 314.545 42.0114C312.083 42.0114 310 42.6458 308.295 43.9148C306.61 45.1837 305.331 46.9545 304.46 49.2273C303.589 51.5 303.153 54.1515 303.153 57.1818ZM352.72 20.8182V79H344.226V20.8182H352.72ZM382.955 79.8807C378.655 79.8807 374.953 78.9621 371.847 77.125C368.759 75.2689 366.373 72.6648 364.688 69.3125C363.021 65.9413 362.188 61.9924 362.188 57.4659C362.188 52.9962 363.021 49.0568 364.688 45.6477C366.373 42.2386 368.722 39.5777 371.733 37.6648C374.763 35.7519 378.305 34.7955 382.358 34.7955C384.82 34.7955 387.206 35.2027 389.517 36.017C391.828 36.8314 393.902 38.1098 395.739 39.8523C397.576 41.5947 399.025 43.858 400.085 46.642C401.146 49.4072 401.676 52.7689 401.676 56.7273V59.7386H366.989V53.375H393.352C393.352 51.1402 392.898 49.161 391.989 47.4375C391.08 45.6951 389.801 44.322 388.153 43.3182C386.525 42.3144 384.612 41.8125 382.415 41.8125C380.028 41.8125 377.945 42.3996 376.165 43.5739C374.403 44.7292 373.04 46.2443 372.074 48.1193C371.127 49.9754 370.653 51.9924 370.653 54.1705V59.142C370.653 62.0587 371.165 64.5398 372.188 66.5852C373.229 68.6307 374.678 70.1932 376.534 71.2727C378.39 72.3333 380.559 72.8636 383.04 72.8636C384.65 72.8636 386.117 72.6364 387.443 72.1818C388.769 71.7083 389.915 71.0076 390.881 70.0795C391.847 69.1515 392.585 68.0057 393.097 66.642L401.136 68.0909C400.492 70.4583 399.337 72.5322 397.67 74.3125C396.023 76.0739 393.949 77.447 391.449 78.4318C388.968 79.3977 386.136 79.8807 382.955 79.8807Z" fill="#333333"/>
<path d="M482.811 54.6458L482.812 54.6449C483.69 53.8468 485.079 53.8732 485.919 54.7054C486.774 55.5526 486.748 56.9165 485.856 57.7275L482.811 54.6458ZM482.811 54.6458L475.232 61.565L475.232 61.565M482.811 54.6458L475.232 61.565M475.232 61.565L475.227 61.5699M475.232 61.565L475.227 61.5699M475.227 61.5699C474.272 62.4674 472.692 62.4691 471.728 61.575L475.227 61.5699ZM478.299 64.6264L485.855 57.7284L471.728 61.5744L467.864 57.974L467.863 57.9731C467.001 57.1735 465.615 57.1762 464.759 58.007L465.108 58.3657L464.759 58.007C463.893 58.8479 463.913 60.2085 464.794 61.0293L465.135 60.6635L464.794 61.0293L468.658 64.6303L468.659 64.6306C469.996 65.8741 471.747 66.4902 473.482 66.4902C475.217 66.4902 476.967 65.8712 478.297 64.6286C478.298 64.6278 478.299 64.6271 478.299 64.6264ZM451.875 79.5C453.07 79.5 454.083 78.5714 454.083 77.375C454.083 76.1786 453.07 75.25 451.875 75.25H431.375C425.033 75.25 419.917 70.3481 419.917 64.375V15.625C419.917 9.65191 425.033 4.75 431.375 4.75H462.125C468.467 4.75 473.583 9.65191 473.583 15.625V28.625C473.583 29.8214 474.596 30.75 475.792 30.75C476.987 30.75 478 29.8214 478 28.625V15.625C478 7.26234 470.854 0.5 462.125 0.5H431.375C422.646 0.5 415.5 7.26234 415.5 15.625V64.375C415.5 72.7377 422.646 79.5 431.375 79.5H451.875ZM464.333 18.875C464.333 17.6786 463.32 16.75 462.125 16.75H431.375C430.18 16.75 429.167 17.6786 429.167 18.875C429.167 20.0714 430.18 21 431.375 21H462.125C463.32 21 464.333 20.0714 464.333 18.875ZM457.5 35.125C457.5 33.9286 456.487 33 455.292 33H431.375C430.18 33 429.167 33.9286 429.167 35.125C429.167 36.3214 430.18 37.25 431.375 37.25H455.292C456.487 37.25 457.5 36.3214 457.5 35.125ZM431.375 49.25C430.18 49.25 429.167 50.1786 429.167 51.375C429.167 52.5714 430.18 53.5 431.375 53.5H445.042C446.237 53.5 447.25 52.5714 447.25 51.375C447.25 50.1786 446.237 49.25 445.042 49.25H431.375ZM475.792 79.5C488.289 79.5 498.5 69.8224 498.5 57.875C498.5 45.9276 488.289 36.25 475.792 36.25C463.294 36.25 453.083 45.9276 453.083 57.875C453.083 69.8224 463.294 79.5 475.792 79.5ZM475.792 40.5C485.899 40.5 494.083 48.3204 494.083 57.875C494.083 67.4296 485.899 75.25 475.792 75.25C465.685 75.25 457.5 67.4296 457.5 57.875C457.5 48.3204 465.685 40.5 475.792 40.5Z" fill="#333333" stroke="#333333"/>
</svg>
